# xmcd
# Track frame offsets:
# 150
# 16989
# 35182
# 60995
# 76623
# 94944
# 118774
# 136155
# 148779
# 170664
#
# Disc length: 2518 seconds
# Revision: 0
# Processed by: cddbd v1.5.1PL2 Copyright (c) Steve Scherf et al.
# Submitted via: VisiTrax 2.9.10.228 - For more info visit www.synapsa.com
#
DISCID=8209d40a
DTITLE=Gibson.Jeff - Many Ways.
DYEAR=2004
DGENRE=Country
TTITLE0=I Don'T Know Why.
TTITLE1=We All Need The Darkness.
TTITLE2=To See Her Cry.
TTITLE3=Many Ways.
TTITLE4=Let It Be Free.
TTITLE5=Biggest Fool Around.The.
TTITLE6=Fantasise.
TTITLE7=Don't Go Blocking My Sunshine.
TTITLE8=Diamonds.
TTITLE9=Blue Jeans.
EXTD=
EXTT0=
EXTT1=
EXTT2=
EXTT3=
EXTT4=
EXTT5=
EXTT6=
EXTT7=
EXTT8=
EXTT9=
PLAYORDER=
